<?xml version="1.0" ?><svg data-name="Layer 1" id="Layer_1" viewBox="0 0 140 140" xmlns="http://www.w3.org/2000/svg"><defs><style>.cls-1{fill:#f0dc6a;}.cls-2{fill:#525354;}.cls-3{fill:#1a1a1a;}.cls-4{fill:#fff;}</style></defs><title/><circle class="cls-1" cx="70" cy="70" r="64"/><rect class="cls-2" height="98" rx="8" ry="8" width="47" x="47" y="21.5"/><rect class="cls-3" height="98" rx="8" ry="8" width="47" x="46" y="20.5"/><rect class="cls-4" height="71.35" rx="1" ry="1" width="40" x="49.5" y="33.82"/><circle class="cls-2" cx="69.5" cy="111.5" r="4"/><rect class="cls-2" height="2" rx="1" ry="1" width="15" x="62" y="27.5"/><path class="cls-2" d="M73,62.47a2.72,2.72,0,0,1,1.2-2.26,2.55,2.55,0,0,0-2.11-1.68,5,5,0,0,0-1.81.32,1.69,1.69,0,0,1-1.22,0,5,5,0,0,0-1.81-.32c-1.51,0-2.73,2-2.73,4.54s1.83,5.15,3.33,5.15c.44,0,1-.63,1.47-.78a1.28,1.28,0,0,1,.7,0c.51.15,1,.78,1.47.78,1.14,0,2.46-1.51,3-3.32A2.72,2.72,0,0,1,73,62.47Z"/><path class="cls-2" d="M71.53,56.82a3.57,3.57,0,0,1-2,.9,3.07,3.07,0,0,1,2.94-2.94A3.57,3.57,0,0,1,71.53,56.82Z"/></svg>